<svg xmlns="http://www.w3.org/2000/svg" viewBox="0 0 76.96 75.13"><defs><style>.cls-1{fill:#ffd792;}.cls-2{fill:#fbefca;}</style></defs><g id="圖層_1" data-name="圖層 1"><path class="cls-1" d="M40.55,21.64a1.42,1.42,0,0,1-.9,1.32l-8.38,3.21a10.92,10.92,0,0,0-6.34,6.47l-3.18,8.78c0,.06-.08.11-.11.17a1.1,1.1,0,0,1-.09.14.93.93,0,0,1-.16.18,1.46,1.46,0,0,1-.33.22,1,1,0,0,1-.23.07l-.23,0-.24,0a.88.88,0,0,1-.23-.07,1.33,1.33,0,0,1-.34-.22l-.16-.18a.75.75,0,0,1-.07-.12,2.14,2.14,0,0,1-.13-.19l-3.18-8.78a10.89,10.89,0,0,0-6.34-6.47L1.54,23a1.4,1.4,0,0,1,.07-2.65L9.28,17.9a10.93,10.93,0,0,0,7-6.91l3.12-9.21a1.32,1.32,0,0,1,.15-.29.61.61,0,0,1,.13-.16,1.07,1.07,0,0,1,.43-.28L20.32,1a.8.8,0,0,1,.27,0,.86.86,0,0,1,.28,0l.16.05a1.18,1.18,0,0,1,.4.25.79.79,0,0,1,.12.15,1,1,0,0,1,.19.33L24.85,11a11,11,0,0,0,7,6.91l7.67,2.41A1.39,1.39,0,0,1,40.55,21.64Z"/><path class="cls-2" d="M75.24,55.68a1.21,1.21,0,0,1-.78,1.14l-7.28,2.8a9.47,9.47,0,0,0-5.51,5.62L58.9,72.87s-.06.09-.09.15l-.08.12a1.07,1.07,0,0,1-.14.16,1.45,1.45,0,0,1-.29.19,1.17,1.17,0,0,1-.2.06l-.19,0-.22,0-.2-.06a1.15,1.15,0,0,1-.29-.2,1,1,0,0,1-.14-.15L57,73a.82.82,0,0,1-.11-.17l-2.77-7.63a9.42,9.42,0,0,0-5.51-5.62l-7.28-2.8a1.23,1.23,0,0,1-.78-1.14,1.21,1.21,0,0,1,.85-1.16l6.66-2.1a9.48,9.48,0,0,0,6.13-6l2.72-8a1.15,1.15,0,0,1,.12-.25.53.53,0,0,1,.12-.14,1,1,0,0,1,.37-.25l.14,0a.93.93,0,0,1,.24,0l.24,0,.14,0a1.18,1.18,0,0,1,.35.23l.1.12a.83.83,0,0,1,.16.29l2.71,8a9.5,9.5,0,0,0,6.13,6l6.66,2.1A1.21,1.21,0,0,1,75.24,55.68Z"/></g></svg>